<svg width="14" height="14" viewBox="0 0 14 14" fill="none" xmlns="http://www.w3.org/2000/svg">
<g clip-path="url(#clip0_433_30498)">
<path d="M6.99992 10.7917C6.12142 9.64542 5.24992 8.45833 5.24992 7.58333C5.24992 6.41667 5.83325 5.83333 6.99992 5.83333C8.16659 5.83333 8.74992 6.41667 8.74992 7.58333C8.74992 8.45833 7.87842 9.64542 6.99992 10.7917ZM6.99992 10.7917C7.58325 11.375 7.87492 11.6667 8.45825 11.9583C9.04159 12.25 9.91659 12.5417 11.0833 11.6667C12.2499 10.7917 11.9583 9.625 11.3749 8.16667C10.7916 6.70833 10.014 4.95833 8.45825 2.625C7.97175 2.04167 7.58325 1.75 6.99817 1.75C6.41483 1.75 6.05142 2.0125 5.54159 2.625C3.98584 4.95833 3.20825 6.70833 2.62492 8.16667C2.04159 9.625 1.74992 10.7917 2.91659 11.6667C4.08325 12.5417 4.95825 12.25 5.54159 11.9583C6.12492 11.6667 6.41659 11.375 6.99992 10.7917Z" stroke="#F59331" stroke-linecap="round" stroke-linejoin="round"/>
</g>
<defs>
<clipPath id="clip0_433_30498">
<rect width="14" height="14" fill="white"/>
</clipPath>
</defs>
</svg>
