<svg width="18" height="17" viewBox="0 0 18 17" fill="none" xmlns="http://www.w3.org/2000/svg">
<g clip-path="url(#clip0_386_45015)">
<path fill-rule="evenodd" clip-rule="evenodd" d="M18 3.26392C18 1.46251 16.4848 0 14.6194 0H3.38055C1.51516 0 0 1.46251 0 3.26392V13.7359C0 15.5369 1.51516 16.9999 3.38056 16.9999H14.6194C16.4848 16.9999 18 15.5369 18 13.7359L18 3.26392Z" fill="#0C3B7C"/>
<path fill-rule="evenodd" clip-rule="evenodd" d="M0.000732422 10.5615H8.99064V17.0002H0.00073901L0.000732422 10.5615Z" fill="#0C3B7C"/>
<path d="M8.18071 11.2528L6.73094 11.2514V9.57742C6.73094 9.21973 6.87462 9.03357 7.19158 8.99104H8.18071C8.88611 8.99104 9.34241 9.42054 9.34241 10.1157C9.34241 10.8296 8.89765 11.2522 8.18071 11.2528ZM6.73094 6.73761V6.29696C6.73094 5.9114 6.89989 5.72803 7.27027 5.70432H8.01249C8.64857 5.70432 9.02979 6.07176 9.02979 6.68741C9.02979 7.15595 8.76842 7.70327 8.03559 7.70327H6.73094V6.73761ZM10.0319 8.40817L9.76983 8.26593L9.99871 8.07698C10.2651 7.85596 10.7113 7.35884 10.7113 6.50125C10.7113 5.18768 9.65648 4.34054 8.02404 4.34054H6.16128V4.33984H5.94901C5.46528 4.35728 5.07756 4.73727 5.07251 5.2072V12.6605H8.06086C9.87525 12.6605 11.0463 11.7067 11.0463 10.2293C11.0463 9.43378 10.668 8.75399 10.0319 8.40817Z" fill="white"/>
<path d="M11.8247 11.6306C11.8247 11.0612 12.3002 10.6006 12.8861 10.6006C13.4735 10.6006 13.9512 11.0612 13.9512 11.6306C13.9512 12.1992 13.4735 12.6606 12.8861 12.6606C12.3002 12.6606 11.8247 12.1992 11.8247 11.6306Z" fill="#00BAFC"/>
</g>
<defs>
<clipPath id="clip0_386_45015">
<rect width="18" height="17" fill="white"/>
</clipPath>
</defs>
</svg>
