<svg width="16" height="16" viewBox="0 0 16 16" fill="none" xmlns="http://www.w3.org/2000/svg">
<path d="M11.3334 9.33268C11.7016 9.33268 12 9.03421 12 8.66602C12 8.29783 11.7016 7.99935 11.3334 7.99935C10.9652 7.99935 10.6667 8.29783 10.6667 8.66602C10.6667 9.03421 10.9652 9.33268 11.3334 9.33268Z" fill="#4F617D"/>
<path d="M11.3334 11.9993C11.7016 11.9993 12 11.7009 12 11.3327C12 10.9645 11.7016 10.666 11.3334 10.666C10.9652 10.666 10.6667 10.9645 10.6667 11.3327C10.6667 11.7009 10.9652 11.9993 11.3334 11.9993Z" fill="#4F617D"/>
<path d="M8.66671 8.66602C8.66671 9.03421 8.36823 9.33268 8.00004 9.33268C7.63185 9.33268 7.33337 9.03421 7.33337 8.66602C7.33337 8.29783 7.63185 7.99935 8.00004 7.99935C8.36823 7.99935 8.66671 8.29783 8.66671 8.66602Z" fill="#4F617D"/>
<path d="M8.66671 11.3327C8.66671 11.7009 8.36823 11.9993 8.00004 11.9993C7.63185 11.9993 7.33337 11.7009 7.33337 11.3327C7.33337 10.9645 7.63185 10.666 8.00004 10.666C8.36823 10.666 8.66671 10.9645 8.66671 11.3327Z" fill="#4F617D"/>
<path d="M4.66671 9.33268C5.0349 9.33268 5.33337 9.03421 5.33337 8.66602C5.33337 8.29783 5.0349 7.99935 4.66671 7.99935C4.29852 7.99935 4.00004 8.29783 4.00004 8.66602C4.00004 9.03421 4.29852 9.33268 4.66671 9.33268Z" fill="#4F617D"/>
<path d="M4.66671 11.9993C5.0349 11.9993 5.33337 11.7009 5.33337 11.3327C5.33337 10.9645 5.0349 10.666 4.66671 10.666C4.29852 10.666 4.00004 10.9645 4.00004 11.3327C4.00004 11.7009 4.29852 11.9993 4.66671 11.9993Z" fill="#4F617D"/>
<path fill-rule="evenodd" clip-rule="evenodd" d="M4.66671 1.16602C4.94285 1.16602 5.16671 1.38987 5.16671 1.66602V2.1745C5.60804 2.16601 6.09426 2.16601 6.62901 2.16602H9.37098C9.90575 2.16601 10.392 2.16601 10.8334 2.1745V1.66602C10.8334 1.38987 11.0572 1.16602 11.3334 1.16602C11.6095 1.16602 11.8334 1.38987 11.8334 1.66602V2.21741C12.0067 2.23062 12.1708 2.24723 12.3261 2.26811C13.1077 2.37319 13.7403 2.5946 14.2392 3.09351C14.7381 3.59242 14.9595 4.22505 15.0646 5.00667C15.1667 5.76614 15.1667 6.73655 15.1667 7.96171V9.37029C15.1667 10.5954 15.1667 11.5659 15.0646 12.3254C14.9595 13.107 14.7381 13.7396 14.2392 14.2385C13.7403 14.7374 13.1077 14.9588 12.3261 15.0639C11.5666 15.166 10.5962 15.166 9.37101 15.166H6.6291C5.40394 15.166 4.4335 15.166 3.67403 15.0639C2.89241 14.9588 2.25978 14.7374 1.76087 14.2385C1.26196 13.7396 1.04055 13.107 0.935464 12.3254C0.833355 11.5659 0.833364 10.5955 0.833374 9.37029V7.96174C0.833364 6.73656 0.833355 5.76614 0.935464 5.00667C1.04055 4.22505 1.26196 3.59242 1.76087 3.09351C2.25978 2.5946 2.89241 2.37319 3.67403 2.26811C3.82931 2.24723 3.99341 2.23062 4.16671 2.21741V1.66602C4.16671 1.38987 4.39057 1.16602 4.66671 1.16602ZM3.80727 3.25919C3.13655 3.34937 2.75012 3.51848 2.46798 3.80062C2.18584 4.08276 2.01672 4.46919 1.92655 5.13991C1.91128 5.25351 1.89851 5.37309 1.88783 5.49935H14.1123C14.1016 5.37309 14.0888 5.25351 14.0735 5.13991C13.9834 4.46919 13.8142 4.08276 13.5321 3.80062C13.25 3.51848 12.8635 3.34936 12.1928 3.25919C11.5077 3.16708 10.6046 3.16602 9.33337 3.16602H6.66671C5.39549 3.16602 4.49238 3.16708 3.80727 3.25919ZM1.83337 7.99935C1.83337 7.43001 1.83359 6.9345 1.8421 6.49935H14.158C14.1665 6.9345 14.1667 7.43001 14.1667 7.99935V9.33268C14.1667 10.6039 14.1656 11.507 14.0735 12.1921C13.9834 12.8628 13.8142 13.2493 13.5321 13.5314C13.25 13.8136 12.8635 13.9827 12.1928 14.0728C11.5077 14.165 10.6046 14.166 9.33337 14.166H6.66671C5.39549 14.166 4.49238 14.165 3.80727 14.0728C3.13655 13.9827 2.75012 13.8136 2.46798 13.5314C2.18584 13.2493 2.01672 12.8628 1.92655 12.1921C1.83444 11.507 1.83337 10.6039 1.83337 9.33268V7.99935Z" fill="#4F617D"/>
</svg>
