<svg width="20" height="20" viewBox="0 0 20 20" fill="none" xmlns="http://www.w3.org/2000/svg">
<path d="M14.5417 18.9577C13.6 18.9577 12.6084 18.7327 11.5834 18.2993C10.5834 17.8743 9.57502 17.291 8.59169 16.5827C7.61669 15.866 6.67502 15.066 5.78335 14.191C4.90002 13.2993 4.10002 12.3577 3.39169 11.391C2.67502 10.391 2.10002 9.39102 1.69169 8.42435C1.25835 7.39102 1.04169 6.39102 1.04169 5.44935C1.04169 4.79935 1.15835 4.18268 1.38335 3.60768C1.61669 3.01602 1.99169 2.46602 2.50002 1.99102C3.14169 1.35768 3.87502 1.04102 4.65835 1.04102C4.98335 1.04102 5.31669 1.11602 5.60002 1.24935C5.92502 1.39935 6.20002 1.62435 6.40002 1.92435L8.33335 4.64935C8.50835 4.89102 8.64169 5.12435 8.73335 5.35768C8.84169 5.60768 8.90002 5.85768 8.90002 6.09935C8.90002 6.41602 8.80835 6.72435 8.63335 7.01602C8.50835 7.24102 8.31669 7.48268 8.07502 7.72435L7.50835 8.31602C7.51669 8.34101 7.52502 8.35768 7.53335 8.37435C7.63335 8.54935 7.83335 8.84935 8.21669 9.29935C8.62502 9.76602 9.00835 10.191 9.39169 10.5827C9.88335 11.066 10.2917 11.4493 10.675 11.766C11.15 12.166 11.4584 12.366 11.6417 12.4577L11.625 12.4993L12.2334 11.8993C12.4917 11.641 12.7417 11.4493 12.9834 11.3243C13.4417 11.041 14.025 10.991 14.6084 11.2327C14.825 11.3243 15.0584 11.4493 15.3084 11.6243L18.075 13.591C18.3834 13.7993 18.6084 14.066 18.7417 14.3827C18.8667 14.6993 18.925 14.991 18.925 15.2827C18.925 15.6827 18.8334 16.0827 18.6584 16.4577C18.4834 16.8327 18.2667 17.1577 17.9917 17.4577C17.5167 17.9827 17 18.3577 16.4 18.5993C15.825 18.8327 15.2 18.9577 14.5417 18.9577ZM4.65835 2.29102C4.20002 2.29102 3.77502 2.49102 3.36669 2.89102C2.98335 3.24935 2.71669 3.64102 2.55002 4.06602C2.37502 4.49935 2.29169 4.95768 2.29169 5.44935C2.29169 6.22435 2.47502 7.06602 2.84169 7.93268C3.21669 8.81602 3.74169 9.73268 4.40835 10.6493C5.07502 11.566 5.83335 12.4577 6.66669 13.2993C7.50002 14.1243 8.40002 14.891 9.32502 15.566C10.225 16.2243 11.15 16.7577 12.0667 17.141C13.4917 17.7493 14.825 17.891 15.925 17.4327C16.35 17.2577 16.725 16.991 17.0667 16.6077C17.2584 16.3993 17.4084 16.1743 17.5334 15.9077C17.6334 15.6993 17.6834 15.4827 17.6834 15.266C17.6834 15.1327 17.6584 14.9993 17.5917 14.8493C17.5667 14.7993 17.5167 14.7077 17.3584 14.5993L14.5917 12.6327C14.425 12.516 14.275 12.4327 14.1334 12.3743C13.95 12.2993 13.875 12.2243 13.5917 12.3993C13.425 12.4827 13.275 12.6077 13.1084 12.7743L12.475 13.3993C12.15 13.716 11.65 13.791 11.2667 13.6493L11.0417 13.5493C10.7 13.366 10.3 13.0827 9.85835 12.7077C9.45835 12.366 9.02502 11.966 8.50002 11.4493C8.09169 11.0327 7.68335 10.591 7.25835 10.0993C6.86669 9.64102 6.58335 9.24935 6.40835 8.92435L6.30835 8.67435C6.25835 8.48268 6.24169 8.37435 6.24169 8.25768C6.24169 7.95768 6.35002 7.69102 6.55835 7.48268L7.18335 6.83268C7.35002 6.66602 7.47502 6.50768 7.55835 6.36602C7.62502 6.25768 7.65002 6.16602 7.65002 6.08268C7.65002 6.01602 7.62502 5.91602 7.58335 5.81602C7.52502 5.68268 7.43335 5.53268 7.31669 5.37435L5.38335 2.64102C5.30002 2.52435 5.20002 2.44102 5.07502 2.38268C4.94169 2.32435 4.80002 2.29102 4.65835 2.29102ZM11.625 12.5077L11.4917 13.0743L11.7167 12.491C11.675 12.4827 11.6417 12.491 11.625 12.5077Z" fill="#4F617D"/>
</svg>
