<svg width="16" height="16" viewBox="0 0 16 16" fill="none" xmlns="http://www.w3.org/2000/svg">
<g clip-path="url(#clip0_2232_45401)">
<path fill-rule="evenodd" clip-rule="evenodd" d="M8.00004 1.83398C4.59428 1.83398 1.83337 4.59489 1.83337 8.00065C1.83337 11.4064 4.59428 14.1673 8.00004 14.1673C11.4058 14.1673 14.1667 11.4064 14.1667 8.00065C14.1667 4.59489 11.4058 1.83398 8.00004 1.83398ZM0.833374 8.00065C0.833374 4.04261 4.042 0.833984 8.00004 0.833984C11.9581 0.833984 15.1667 4.04261 15.1667 8.00065C15.1667 11.9587 11.9581 15.1673 8.00004 15.1673C4.042 15.1673 0.833374 11.9587 0.833374 8.00065ZM8.00004 4.83398C8.27618 4.83398 8.50004 5.05784 8.50004 5.33398V7.79354L10.0203 9.31376C10.2155 9.50903 10.2155 9.82561 10.0203 10.0209C9.825 10.2161 9.50842 10.2161 9.31315 10.0209L7.64649 8.3542C7.55272 8.26044 7.50004 8.13326 7.50004 8.00065V5.33398C7.50004 5.05784 7.7239 4.83398 8.00004 4.83398Z" fill="#4F617D"/>
</g>
<defs>
<clipPath id="clip0_2232_45401">
<rect width="16" height="16" fill="white"/>
</clipPath>
</defs>
</svg>
