<svg width="18" height="18" viewBox="0 0 18 18" fill="none" xmlns="http://www.w3.org/2000/svg">
<path d="M4.15548 14.6397C3.69798 14.6397 3.27048 14.4822 2.96298 14.1897C2.57298 13.8222 2.38548 13.2672 2.45298 12.6672L2.73048 10.2372C2.78298 9.77967 3.06048 9.17217 3.38298 8.84217L9.54048 2.32467C11.078 0.69717 12.683 0.652171 14.3105 2.18967C15.938 3.72717 15.983 5.33217 14.4455 6.95967L8.28798 13.4772C7.97298 13.8147 7.38798 14.1297 6.93048 14.2047L4.51548 14.6172C4.38798 14.6247 4.27548 14.6397 4.15548 14.6397ZM11.948 2.18217C11.3705 2.18217 10.868 2.54217 10.358 3.08217L4.20048 9.60717C4.05048 9.76467 3.87798 10.1397 3.84798 10.3572L3.57048 12.7872C3.54048 13.0347 3.60048 13.2372 3.73548 13.3647C3.87048 13.4922 4.07298 13.5372 4.32048 13.4997L6.73548 13.0872C6.95298 13.0497 7.31298 12.8547 7.46298 12.6972L13.6205 6.17967C14.5505 5.18967 14.888 4.27467 13.5305 2.99967C12.9305 2.42217 12.413 2.18217 11.948 2.18217Z" fill="#292760"/>
<path d="M13.0044 8.21263C12.9893 8.21263 12.9669 8.21263 12.9519 8.21263C10.6119 7.98013 8.72935 6.20263 8.36935 3.87763C8.32435 3.57013 8.53435 3.28513 8.84185 3.23263C9.14935 3.18763 9.43435 3.39763 9.48685 3.70513C9.77185 5.52013 11.2419 6.91513 13.0719 7.09513C13.3794 7.12513 13.6044 7.40263 13.5744 7.71013C13.5369 7.99513 13.2894 8.21263 13.0044 8.21263Z" fill="#292760"/>
<path d="M15.75 17.0625H2.25C1.9425 17.0625 1.6875 16.8075 1.6875 16.5C1.6875 16.1925 1.9425 15.9375 2.25 15.9375H15.75C16.0575 15.9375 16.3125 16.1925 16.3125 16.5C16.3125 16.8075 16.0575 17.0625 15.75 17.0625Z" fill="#292760"/>
</svg>
