<svg width="20" height="20" viewBox="0 0 20 20" fill="none" xmlns="http://www.w3.org/2000/svg">
<path d="M11.1666 14.5177H9.07489C7.70822 14.5177 6.59989 13.3677 6.59989 11.951C6.59989 11.6094 6.88322 11.326 7.22489 11.326C7.56655 11.326 7.84989 11.6094 7.84989 11.951C7.84989 12.676 8.39989 13.2677 9.07489 13.2677H11.1666C11.7082 13.2677 12.1582 12.7844 12.1582 12.201C12.1582 11.476 11.8999 11.3344 11.4749 11.1844L8.11655 10.001C7.46655 9.77604 6.59155 9.29271 6.59155 7.80104C6.59155 6.51771 7.59989 5.48438 8.83322 5.48438H10.9249C12.2916 5.48438 13.3999 6.63437 13.3999 8.05104C13.3999 8.39271 13.1166 8.67604 12.7749 8.67604C12.4332 8.67604 12.1499 8.39271 12.1499 8.05104C12.1499 7.32604 11.5999 6.73438 10.9249 6.73438H8.83322C8.29155 6.73438 7.84155 7.21771 7.84155 7.80104C7.84155 8.52604 8.09989 8.66771 8.52489 8.81771L11.8832 10.001C12.5332 10.226 13.4082 10.7094 13.4082 12.201C13.3999 13.476 12.3999 14.5177 11.1666 14.5177Z" fill="#F59331"/>
<path d="M10 15.625C9.65833 15.625 9.375 15.3417 9.375 15V5C9.375 4.65833 9.65833 4.375 10 4.375C10.3417 4.375 10.625 4.65833 10.625 5V15C10.625 15.3417 10.3417 15.625 10 15.625Z" fill="#F59331"/>
<path d="M10.0001 18.9577C5.05841 18.9577 1.04175 14.941 1.04175 9.99935C1.04175 5.05768 5.05841 1.04102 10.0001 1.04102C14.9417 1.04102 18.9584 5.05768 18.9584 9.99935C18.9584 14.941 14.9417 18.9577 10.0001 18.9577ZM10.0001 2.29102C5.75008 2.29102 2.29175 5.74935 2.29175 9.99935C2.29175 14.2493 5.75008 17.7077 10.0001 17.7077C14.2501 17.7077 17.7084 14.2493 17.7084 9.99935C17.7084 5.74935 14.2501 2.29102 10.0001 2.29102Z" fill="#F59331"/>
</svg>
