<svg width="16" height="16" viewBox="0 0 16 16" fill="none" xmlns="http://www.w3.org/2000/svg">
<path d="M4.29999 15.1673C4.02665 15.1673 3.79999 14.9406 3.79999 14.6673V1.33398C3.79999 1.06065 4.02665 0.833984 4.29999 0.833984C4.57332 0.833984 4.79999 1.06065 4.79999 1.33398V14.6673C4.79999 14.9406 4.57332 15.1673 4.29999 15.1673Z" fill="#F59331"/>
<path d="M4.63332 11.8336C4.44666 11.8336 4.27332 11.7336 4.18666 11.5536C4.06666 11.3069 4.16666 11.0069 4.41332 10.8869L9.94666 8.15357C10.76 7.73357 11.22 7.22691 11.2 6.75357C11.18 6.29357 10.6867 5.82024 9.83999 5.46024L4.43999 3.12691C4.17999 3.01357 4.06666 2.72024 4.17332 2.46691C4.27999 2.21357 4.57999 2.09357 4.83332 2.20691L10.2333 4.54024C11.9 5.24691 12.18 6.20691 12.2 6.71357C12.2333 7.60024 11.5933 8.42691 10.4 9.04024L4.85999 11.7802C4.78666 11.8202 4.70666 11.8336 4.63332 11.8336Z" fill="#F59331"/>
</svg>
