<svg width="20" height="20" viewBox="0 0 20 20" fill="none" xmlns="http://www.w3.org/2000/svg">
<path d="M7.63142 17.3089V14.7532C7.6314 14.1032 8.16134 13.575 8.81792 13.5707H11.223C11.8827 13.5707 12.4175 14.1001 12.4175 14.7532V14.7532V17.3168C12.4173 17.8687 12.8623 18.3197 13.4196 18.3327H15.023C16.6213 18.3327 17.9171 17.0499 17.9171 15.4675V15.4675V8.19754C17.9085 7.57504 17.6133 6.99047 17.1154 6.61021L11.6318 2.2371C10.6712 1.47565 9.30558 1.47565 8.34492 2.2371L2.88543 6.61815C2.38562 6.99687 2.0899 7.5824 2.08374 8.20548V15.4675C2.08374 17.0499 3.37947 18.3327 4.97783 18.3327H6.58121C7.15237 18.3327 7.61539 17.8743 7.61539 17.3089V17.3089" stroke="#4F617D" stroke-width="1.25" stroke-linecap="round" stroke-linejoin="round"/>
</svg>
