<svg width="20" height="20" viewBox="0 0 20 20" fill="none" xmlns="http://www.w3.org/2000/svg">
<path d="M7.63118 17.3089V14.7532C7.63116 14.1032 8.16109 13.575 8.81767 13.5707H11.2227C11.8824 13.5707 12.4173 14.1001 12.4173 14.7532V14.7532V17.3168C12.4171 17.8687 12.862 18.3197 13.4194 18.3327H15.0227C16.6211 18.3327 17.9168 17.0499 17.9168 15.4675V15.4675V8.19754C17.9083 7.57504 17.6131 6.99047 17.1151 6.61021L11.6316 2.2371C10.6709 1.47565 9.30533 1.47565 8.34468 2.2371L2.88518 6.61815C2.38538 6.99687 2.08965 7.5824 2.0835 8.20548V15.4675C2.0835 17.0499 3.37923 18.3327 4.97759 18.3327H6.58096C7.15212 18.3327 7.61514 17.8743 7.61514 17.3089V17.3089" stroke="#F59331" stroke-width="1.25" stroke-linecap="round" stroke-linejoin="round"/>
</svg>
