<svg width="20" height="20" viewBox="0 0 20 20" fill="none" xmlns="http://www.w3.org/2000/svg">
<path d="M5.15011 18.9579C5.06678 18.9579 4.97511 18.9496 4.90011 18.9413L3.09178 18.6913C2.22511 18.5746 1.44178 17.7996 1.30845 16.9163L1.05845 15.0913C0.975114 14.5079 1.22511 13.7496 1.64178 13.3246L5.30011 9.66628C4.70845 7.29961 5.39178 4.79961 7.13345 3.07461C9.83345 0.382944 14.2251 0.37461 16.9334 3.07461C18.2418 4.38294 18.9584 6.12461 18.9584 7.97461C18.9584 9.82461 18.2418 11.5663 16.9334 12.8746C15.1834 14.6079 12.6918 15.2913 10.3418 14.6913L6.67511 18.3496C6.32511 18.7163 5.70011 18.9579 5.15011 18.9579ZM12.0251 2.29961C10.5668 2.29961 9.11678 2.84961 8.00845 3.95794C6.50845 5.44961 5.96678 7.63294 6.59178 9.66628C6.65845 9.89128 6.60011 10.1246 6.43345 10.2913L2.51678 14.2079C2.37511 14.3496 2.25845 14.7163 2.28345 14.9079L2.53345 16.7329C2.58345 17.0496 2.92511 17.4079 3.24178 17.4496L5.05845 17.6996C5.25845 17.7329 5.62511 17.6163 5.76678 17.4746L9.70011 13.5496C9.86678 13.3829 10.1084 13.3329 10.3251 13.3996C12.3334 14.0329 14.5251 13.4913 16.0251 11.9913C17.0918 10.9246 17.6834 9.49128 17.6834 7.97461C17.6834 6.44961 17.0918 5.02461 16.0251 3.95794C14.9418 2.85794 13.4834 2.29961 12.0251 2.29961Z" fill="#F59331"/>
<path d="M7.65824 17.1167C7.4999 17.1167 7.34157 17.0584 7.21657 16.9334L5.2999 15.0167C5.05824 14.7751 5.05824 14.3751 5.2999 14.1334C5.54157 13.8917 5.94157 13.8917 6.18324 14.1334L8.0999 16.0501C8.34157 16.2917 8.34157 16.6917 8.0999 16.9334C7.9749 17.0584 7.81657 17.1167 7.65824 17.1167Z" fill="#F59331"/>
<path d="M12.0835 9.79199C11.0502 9.79199 10.2085 8.95033 10.2085 7.91699C10.2085 6.88366 11.0502 6.04199 12.0835 6.04199C13.1168 6.04199 13.9585 6.88366 13.9585 7.91699C13.9585 8.95033 13.1168 9.79199 12.0835 9.79199ZM12.0835 7.29199C11.7418 7.29199 11.4585 7.57533 11.4585 7.91699C11.4585 8.25866 11.7418 8.54199 12.0835 8.54199C12.4252 8.54199 12.7085 8.25866 12.7085 7.91699C12.7085 7.57533 12.4252 7.29199 12.0835 7.29199Z" fill="#F59331"/>
</svg>
