<svg width="20" height="20" viewBox="0 0 20 20" fill="none" xmlns="http://www.w3.org/2000/svg">
<path d="M5.14987 18.9579C5.06654 18.9579 4.97487 18.9496 4.89987 18.9413L3.09154 18.6913C2.22487 18.5746 1.44154 17.7996 1.3082 16.9163L1.0582 15.0913C0.97487 14.5079 1.22487 13.7496 1.64154 13.3246L5.29987 9.66628C4.7082 7.29961 5.39154 4.79961 7.1332 3.07461C9.8332 0.382944 14.2249 0.37461 16.9332 3.07461C18.2415 4.38294 18.9582 6.12461 18.9582 7.97461C18.9582 9.82461 18.2415 11.5663 16.9332 12.8746C15.1832 14.6079 12.6915 15.2913 10.3415 14.6913L6.67487 18.3496C6.32487 18.7163 5.69987 18.9579 5.14987 18.9579ZM12.0249 2.29961C10.5665 2.29961 9.11654 2.84961 8.0082 3.95794C6.5082 5.44961 5.96654 7.63294 6.59154 9.66628C6.6582 9.89128 6.59987 10.1246 6.4332 10.2913L2.51654 14.2079C2.37487 14.3496 2.2582 14.7163 2.2832 14.9079L2.5332 16.7329C2.5832 17.0496 2.92487 17.4079 3.24154 17.4496L5.0582 17.6996C5.2582 17.7329 5.62487 17.6163 5.76654 17.4746L9.69987 13.5496C9.86654 13.3829 10.1082 13.3329 10.3249 13.3996C12.3332 14.0329 14.5249 13.4913 16.0249 11.9913C17.0915 10.9246 17.6832 9.49128 17.6832 7.97461C17.6832 6.44961 17.0915 5.02461 16.0249 3.95794C14.9415 2.85794 13.4832 2.29961 12.0249 2.29961Z" fill="white"/>
<path d="M7.65848 17.1167C7.50015 17.1167 7.34181 17.0584 7.21681 16.9334L5.30015 15.0167C5.05848 14.7751 5.05848 14.3751 5.30015 14.1334C5.54181 13.8917 5.94181 13.8917 6.18348 14.1334L8.10015 16.0501C8.34181 16.2917 8.34181 16.6917 8.10015 16.9334C7.97515 17.0584 7.81681 17.1167 7.65848 17.1167Z" fill="white"/>
<path d="M12.0833 9.79199C11.0499 9.79199 10.2083 8.95033 10.2083 7.91699C10.2083 6.88366 11.0499 6.04199 12.0833 6.04199C13.1166 6.04199 13.9583 6.88366 13.9583 7.91699C13.9583 8.95033 13.1166 9.79199 12.0833 9.79199ZM12.0833 7.29199C11.7416 7.29199 11.4583 7.57533 11.4583 7.91699C11.4583 8.25866 11.7416 8.54199 12.0833 8.54199C12.4249 8.54199 12.7083 8.25866 12.7083 7.91699C12.7083 7.57533 12.4249 7.29199 12.0833 7.29199Z" fill="white"/>
</svg>
