<svg width="20" height="20" viewBox="0 0 20 20" fill="none" xmlns="http://www.w3.org/2000/svg">
<path d="M1.66675 12.7506V7.50065C1.66675 4.58398 3.33341 3.33398 5.83341 3.33398H14.1667C16.6667 3.33398 18.3334 4.58398 18.3334 7.50065V12.5007C18.3334 15.4173 16.6667 16.6673 14.1667 16.6673H7.08341" stroke="#F59331" stroke-miterlimit="10" stroke-linecap="round" stroke-linejoin="round"/>
<path d="M10.0001 12.0827C11.1507 12.0827 12.0834 11.1499 12.0834 9.99935C12.0834 8.84876 11.1507 7.91602 10.0001 7.91602C8.84949 7.91602 7.91675 8.84876 7.91675 9.99935C7.91675 11.1499 8.84949 12.0827 10.0001 12.0827Z" stroke="#F59331" stroke-miterlimit="10" stroke-linecap="round" stroke-linejoin="round"/>
<path d="M15.4167 7.91602V12.0827" stroke="#F59331" stroke-miterlimit="10" stroke-linecap="round" stroke-linejoin="round"/>
<path d="M7.50016 14.9993C7.50016 15.6243 7.32515 16.216 7.01682 16.716C6.44182 17.6827 5.3835 18.3327 4.16683 18.3327C2.95016 18.3327 1.89184 17.6827 1.31684 16.716C1.00851 16.216 0.833496 15.6243 0.833496 14.9993C0.833496 13.1577 2.32516 11.666 4.16683 11.666C6.0085 11.666 7.50016 13.1577 7.50016 14.9993Z" stroke="#F59331" stroke-miterlimit="10" stroke-linecap="round" stroke-linejoin="round"/>
<path d="M5.05935 15.8638L3.30103 14.1055" stroke="#F59331" stroke-miterlimit="10" stroke-linecap="round" stroke-linejoin="round"/>
<path d="M5.03322 14.1309L3.2749 15.8892" stroke="#F59331" stroke-miterlimit="10" stroke-linecap="round" stroke-linejoin="round"/>
</svg>
