<svg width="20" height="20" viewBox="0 0 20 20" fill="none" xmlns="http://www.w3.org/2000/svg">
<path d="M1.66669 12.7506V7.50065C1.66669 4.58398 3.33335 3.33398 5.83335 3.33398H14.1667C16.6667 3.33398 18.3334 4.58398 18.3334 7.50065V12.5007C18.3334 15.4173 16.6667 16.6673 14.1667 16.6673H7.08335" stroke="#4F617D" stroke-miterlimit="10" stroke-linecap="round" stroke-linejoin="round"/>
<path d="M10 12.0827C11.1506 12.0827 12.0834 11.1499 12.0834 9.99935C12.0834 8.84876 11.1506 7.91602 10 7.91602C8.84943 7.91602 7.91669 8.84876 7.91669 9.99935C7.91669 11.1499 8.84943 12.0827 10 12.0827Z" stroke="#4F617D" stroke-miterlimit="10" stroke-linecap="round" stroke-linejoin="round"/>
<path d="M15.4167 7.91602V12.0827" stroke="#4F617D" stroke-miterlimit="10" stroke-linecap="round" stroke-linejoin="round"/>
<path d="M7.5001 14.9993C7.5001 15.6243 7.32509 16.216 7.01675 16.716C6.44175 17.6827 5.38343 18.3327 4.16677 18.3327C2.9501 18.3327 1.89178 17.6827 1.31678 16.716C1.00845 16.216 0.833435 15.6243 0.833435 14.9993C0.833435 13.1577 2.3251 11.666 4.16677 11.666C6.00843 11.666 7.5001 13.1577 7.5001 14.9993Z" stroke="#4F617D" stroke-miterlimit="10" stroke-linecap="round" stroke-linejoin="round"/>
<path d="M5.05929 15.8638L3.30096 14.1055" stroke="#4F617D" stroke-miterlimit="10" stroke-linecap="round" stroke-linejoin="round"/>
<path d="M5.03322 14.1309L3.2749 15.8892" stroke="#4F617D" stroke-miterlimit="10" stroke-linecap="round" stroke-linejoin="round"/>
</svg>
