<svg width="16" height="16" viewBox="0 0 16 16" fill="none" xmlns="http://www.w3.org/2000/svg">
<path fill-rule="evenodd" clip-rule="evenodd" d="M2.16675 6.76187C2.16675 3.49586 4.77009 0.833008 8.00008 0.833008C11.2301 0.833008 13.8334 3.49586 13.8334 6.76187C13.8334 8.3386 13.3841 10.0316 12.5897 11.4942C11.7963 12.9551 10.6372 14.2245 9.18709 14.9023C8.43379 15.2544 7.56637 15.2544 6.81307 14.9023C5.363 14.2245 4.20383 12.9551 3.41045 11.4942C2.6161 10.0316 2.16675 8.3386 2.16675 6.76187ZM8.00008 1.83301C5.33904 1.83301 3.16675 4.03133 3.16675 6.76187C3.16675 8.15992 3.5685 9.68995 4.28922 11.017C5.01091 12.3458 6.03076 13.4328 7.23651 13.9963C7.72145 14.223 8.27871 14.223 8.76365 13.9963C9.9694 13.4328 10.9893 12.3458 11.7109 11.017C12.4317 9.68995 12.8334 8.15992 12.8334 6.76187C12.8334 4.03133 10.6611 1.83301 8.00008 1.83301ZM8.00008 5.16634C7.17165 5.16634 6.50008 5.83791 6.50008 6.66634C6.50008 7.49477 7.17165 8.16634 8.00008 8.16634C8.82851 8.16634 9.50008 7.49477 9.50008 6.66634C9.50008 5.83791 8.82851 5.16634 8.00008 5.16634ZM5.50008 6.66634C5.50008 5.28563 6.61937 4.16634 8.00008 4.16634C9.38079 4.16634 10.5001 5.28563 10.5001 6.66634C10.5001 8.04705 9.38079 9.16634 8.00008 9.16634C6.61937 9.16634 5.50008 8.04705 5.50008 6.66634Z" fill="#4F617D"/>
</svg>
