<svg width="20" height="20" viewBox="0 0 20 20" fill="none" xmlns="http://www.w3.org/2000/svg">
<path d="M9.9996 11.8089C8.2246 11.8089 6.7746 10.3672 6.7746 8.58385C6.7746 6.80052 8.2246 5.36719 9.9996 5.36719C11.7746 5.36719 13.2246 6.80885 13.2246 8.59219C13.2246 10.3755 11.7746 11.8089 9.9996 11.8089ZM9.9996 6.61719C8.91626 6.61719 8.0246 7.50052 8.0246 8.59219C8.0246 9.68385 8.90793 10.5672 9.9996 10.5672C11.0913 10.5672 11.9746 9.68385 11.9746 8.59219C11.9746 7.50052 11.0829 6.61719 9.9996 6.61719Z" fill="#4F617D"/>
<path d="M10.0013 18.966C8.76797 18.966 7.52631 18.4993 6.55964 17.5744C4.10131 15.2077 1.38464 11.4327 2.40964 6.94102C3.33464 2.86602 6.89297 1.04102 10.0013 1.04102C10.0013 1.04102 10.0013 1.04102 10.0096 1.04102C13.118 1.04102 16.6763 2.86602 17.6013 6.94935C18.618 11.441 15.9013 15.2077 13.443 17.5744C12.4763 18.4993 11.2346 18.966 10.0013 18.966ZM10.0013 2.29102C7.57631 2.29102 4.45964 3.58268 3.63464 7.21602C2.73464 11.141 5.20131 14.5243 7.43464 16.666C8.87631 18.0577 11.1346 18.0577 12.5763 16.666C14.8013 14.5243 17.268 11.141 16.3846 7.21602C15.5513 3.58268 12.4263 2.29102 10.0013 2.29102Z" fill="#4F617D"/>
</svg>
