<svg width="24" height="24" viewBox="0 0 24 24" fill="none" xmlns="http://www.w3.org/2000/svg">
<path d="M8.75998 22.2705H8.88999C13.33 22.2705 15.47 20.5205 15.84 16.6005C15.88 16.1905 15.58 15.8205 15.16 15.7805C14.76 15.7405 14.38 16.0505 14.34 16.4605C14.05 19.6005 12.57 20.7705 8.87998 20.7705H8.74998C4.67999 20.7705 3.23998 19.3305 3.23998 15.2605V8.74047C3.23998 4.67047 4.67999 3.23047 8.74998 3.23047H8.87998C12.59 3.23047 14.07 4.42047 14.34 7.62047C14.39 8.03047 14.74 8.34047 15.16 8.30047C15.58 8.27047 15.88 7.90047 15.85 7.49047C15.51 3.51047 13.36 1.73047 8.88999 1.73047H8.75998C3.84999 1.73047 1.74998 3.83047 1.74998 8.74047V15.2605C1.74998 20.1705 3.84999 22.2705 8.75998 22.2705Z" fill="#4F617D"/>
<path d="M8.99988 12.75H20.3799C20.7899 12.75 21.1299 12.41 21.1299 12C21.1299 11.59 20.7899 11.25 20.3799 11.25H8.99988C8.58988 11.25 8.24988 11.59 8.24988 12C8.24988 12.41 8.58988 12.75 8.99988 12.75Z" fill="#4F617D"/>
<path d="M18.1501 16.0998C18.3401 16.0998 18.5301 16.0298 18.6801 15.8798L22.0301 12.5298C22.3201 12.2398 22.3201 11.7598 22.0301 11.4698L18.6801 8.11984C18.3901 7.82984 17.9101 7.82984 17.6201 8.11984C17.3301 8.40984 17.3301 8.88984 17.6201 9.17984L20.4401 11.9998L17.6201 14.8198C17.3301 15.1098 17.3301 15.5898 17.6201 15.8798C17.7601 16.0298 17.9601 16.0998 18.1501 16.0998Z" fill="#4F617D"/>
</svg>
