<svg width="20" height="20" viewBox="0 0 20 20" fill="none" xmlns="http://www.w3.org/2000/svg">
<path d="M10 13.9577C9.66669 13.9577 9.33335 13.9327 9.01669 13.8743C7.25002 13.616 5.64169 12.5993 4.62502 11.091C3.91669 10.0243 3.54169 8.78268 3.54169 7.49935C3.54169 3.94102 6.44169 1.04102 10 1.04102C13.5584 1.04102 16.4584 3.94102 16.4584 7.49935C16.4584 8.78268 16.0834 10.0243 15.375 11.091C14.35 12.6077 12.7417 13.616 10.9584 13.8827C10.6667 13.9327 10.3334 13.9577 10 13.9577ZM10 2.29102C7.12502 2.29102 4.79169 4.62435 4.79169 7.49935C4.79169 8.54102 5.09169 9.54102 5.65835 10.391C6.48335 11.6077 7.77502 12.4244 9.20835 12.6327C9.74169 12.7244 10.2667 12.7244 10.7584 12.6327C12.2167 12.4244 13.5084 11.5993 14.3334 10.3827C14.9 9.53268 15.2 8.53267 15.2 7.49101C15.2084 4.62434 12.875 2.29102 10 2.29102Z" fill="#292760"/>
<path d="M5.39153 18.8246C5.27487 18.8246 5.16653 18.808 5.04987 18.783C4.5082 18.658 4.09154 18.2413 3.96654 17.6996L3.67487 16.4746C3.6582 16.3996 3.59987 16.3413 3.51653 16.3163L2.14153 15.9913C1.62487 15.8663 1.21654 15.483 1.07487 14.9746C0.933202 14.4663 1.07487 13.9163 1.44987 13.5413L4.69987 10.2913C4.8332 10.158 5.01654 10.0913 5.19987 10.108C5.3832 10.1247 5.54987 10.2246 5.6582 10.383C6.4832 11.5996 7.77487 12.4247 9.21654 12.633C9.74987 12.7247 10.2749 12.7247 10.7665 12.633C12.2249 12.4247 13.5165 11.5996 14.3415 10.383C14.4415 10.2246 14.6165 10.1247 14.7999 10.108C14.9832 10.0913 15.1665 10.158 15.2999 10.2913L18.5499 13.5413C18.9249 13.9163 19.0665 14.4663 18.9249 14.9746C18.7832 15.483 18.3665 15.8747 17.8582 15.9913L16.4832 16.3163C16.4082 16.333 16.3499 16.3913 16.3249 16.4746L16.0332 17.6996C15.9082 18.2413 15.4915 18.658 14.9499 18.783C14.4082 18.9163 13.8499 18.7246 13.4999 18.2996L9.99987 14.2747L6.49987 18.308C6.21654 18.6413 5.81653 18.8246 5.39153 18.8246ZM5.07487 11.6913L2.3332 14.433C2.2582 14.508 2.26654 14.5913 2.2832 14.6413C2.29154 14.683 2.3332 14.7663 2.4332 14.783L3.8082 15.108C4.34987 15.233 4.76654 15.6496 4.89154 16.1913L5.1832 17.4163C5.2082 17.5246 5.29153 17.558 5.34154 17.5746C5.39153 17.583 5.47487 17.5913 5.54987 17.508L8.74153 13.833C7.32487 13.558 6.02487 12.7996 5.07487 11.6913ZM11.2582 13.8246L14.4499 17.4913C14.5249 17.583 14.6165 17.583 14.6665 17.5663C14.7165 17.558 14.7915 17.5163 14.8249 17.408L15.1165 16.183C15.2415 15.6413 15.6582 15.2246 16.1999 15.0996L17.5749 14.7747C17.6749 14.7497 17.7165 14.6746 17.7249 14.633C17.7415 14.5913 17.7499 14.4996 17.6749 14.4246L14.9332 11.683C13.9749 12.7913 12.6832 13.5496 11.2582 13.8246Z" fill="#292760"/>
<path d="M11.5751 10.7409C11.3584 10.7409 11.1001 10.6826 10.7918 10.4992L10.0001 10.0242L9.20843 10.4909C8.48343 10.9242 8.00843 10.6742 7.83343 10.5492C7.65843 10.4242 7.28343 10.0492 7.4751 9.22423L7.6751 8.3659L7.00843 7.74922C6.64176 7.38255 6.50843 6.9409 6.63343 6.5409C6.75843 6.1409 7.1251 5.85755 7.64176 5.77422L8.53343 5.62423L8.95843 4.6909C9.2001 4.2159 9.5751 3.94922 10.0001 3.94922C10.4251 3.94922 10.8084 4.22424 11.0418 4.69924L11.5334 5.68257L12.3584 5.78256C12.8668 5.8659 13.2334 6.14921 13.3668 6.54921C13.4918 6.94921 13.3584 7.39089 12.9918 7.75756L12.3001 8.44924L12.5168 9.22423C12.7084 10.0492 12.3334 10.4242 12.1584 10.5492C12.0668 10.6242 11.8668 10.7409 11.5751 10.7409ZM8.00843 6.99091L8.58343 7.56588C8.8501 7.83255 8.98343 8.28256 8.9001 8.64923L8.74176 9.31589L9.40843 8.92422C9.76676 8.71589 10.2501 8.71589 10.6001 8.92422L11.2668 9.31589L11.1168 8.64923C11.0334 8.27423 11.1584 7.83255 11.4251 7.56588L12.0001 6.99091L11.2751 6.86589C10.9251 6.80755 10.5751 6.54924 10.4168 6.23257L10.0001 5.41589L9.58343 6.24923C9.43343 6.55756 9.08343 6.82423 8.73343 6.88257L8.00843 6.99091Z" fill="#292760"/>
</svg>
