<svg width="20" height="20" viewBox="0 0 20 20" fill="none" xmlns="http://www.w3.org/2000/svg">
<path d="M11.8582 13.4251H10.2082C9.8249 13.4251 9.26657 13.3084 8.94157 12.9834L7.65824 11.9918L8.4249 11.0001L9.76657 12.0417C9.86657 12.1167 10.0499 12.1667 10.2082 12.1667H11.8582C12.1082 12.1667 12.4082 11.9501 12.4666 11.7334L13.5166 8.52509C13.5416 8.45842 13.5666 8.36674 13.5249 8.30007C13.4916 8.25007 13.3999 8.21676 13.2916 8.21676H11.5582C11.2499 8.21676 10.9582 8.08347 10.7499 7.85014C10.5499 7.61681 10.4582 7.30011 10.4999 6.98344L10.7166 5.59174C10.7416 5.4834 10.6666 5.35845 10.5749 5.32512C10.4999 5.30012 10.3749 5.34174 10.3416 5.3834L8.56657 8.02511L7.5249 7.32514L9.29991 4.68343C9.64991 4.15843 10.3916 3.91675 10.9916 4.14175C11.6666 4.36675 12.0999 5.11675 11.9499 5.81675L11.7749 6.95842H13.2916C13.8166 6.95842 14.2749 7.18341 14.5499 7.57508C14.8166 7.95841 14.8749 8.45007 14.7082 8.92507L13.6749 12.0751C13.4832 12.8168 12.6832 13.4251 11.8582 13.4251Z" fill="#F59331"/>
<path d="M7.13349 12.9503H6.70016C5.40016 12.9503 5.2085 12.042 5.2085 11.5003V7.25859C5.2085 6.71692 5.40016 5.80859 6.70016 5.80859H7.13349C8.43349 5.80859 8.62517 6.71692 8.62517 7.25859V11.5003C8.62517 12.042 8.43349 12.9503 7.13349 12.9503ZM6.48349 11.692C6.5085 11.692 6.57516 11.7003 6.70016 11.7003H7.13349C7.26683 11.7003 7.34183 11.6836 7.36683 11.6753C7.36683 11.6586 7.37517 11.6087 7.37517 11.5003V7.25859C7.37517 7.15025 7.36683 7.09194 7.3585 7.07528C7.34183 7.07528 7.27516 7.06694 7.13349 7.06694H6.70016C6.56682 7.06694 6.49182 7.08363 6.46682 7.09196C6.46682 7.10863 6.4585 7.15859 6.4585 7.26693V11.5087C6.4585 11.617 6.46683 11.6753 6.47517 11.7003C6.47517 11.692 6.48349 11.692 6.48349 11.692Z" fill="#F59331"/>
<path d="M10 18.9581C9.41667 18.9581 8.825 18.7331 8.38333 18.2914L6.95834 16.8831C6.60001 16.5331 6.13333 16.3415 5.63333 16.3415H5C3.275 16.3415 1.875 14.9498 1.875 13.2415V4.14978C1.875 2.44145 3.275 1.0498 5 1.0498H15C16.725 1.0498 18.125 2.44145 18.125 4.14978V13.2415C18.125 14.9498 16.725 16.3415 15 16.3415H14.3667C13.8667 16.3415 13.3917 16.5331 13.0417 16.8831L11.6167 18.2914C11.175 18.7331 10.5833 18.9581 10 18.9581ZM5 2.29146C3.96667 2.29146 3.125 3.12477 3.125 4.14144V13.2331C3.125 14.2581 3.96667 15.0831 5 15.0831H5.63333C6.46666 15.0831 7.25 15.4081 7.84167 15.9914L9.26666 17.3998C9.675 17.7998 10.3333 17.7998 10.7417 17.3998L12.1667 15.9914C12.7583 15.4081 13.5417 15.0831 14.375 15.0831H15C16.0333 15.0831 16.875 14.2498 16.875 13.2331V4.14144C16.875 3.11644 16.0333 2.29146 15 2.29146H5Z" fill="#F59331"/>
</svg>
