<svg width="20" height="20" viewBox="0 0 20 20" fill="none" xmlns="http://www.w3.org/2000/svg">
<path d="M9.99984 13.9587C9.6665 13.9587 9.33317 13.9337 9.0165 13.8753C7.24984 13.617 5.6415 12.6003 4.62484 11.092C3.9165 10.0253 3.5415 8.78366 3.5415 7.50033C3.5415 3.94199 6.4415 1.04199 9.99984 1.04199C13.5582 1.04199 16.4582 3.94199 16.4582 7.50033C16.4582 8.78366 16.0832 10.0253 15.3748 11.092C14.3498 12.6087 12.7415 13.617 10.9582 13.8837C10.6665 13.9337 10.3332 13.9587 9.99984 13.9587ZM9.99984 2.29199C7.12484 2.29199 4.7915 4.62533 4.7915 7.50033C4.7915 8.54199 5.0915 9.54199 5.65817 10.392C6.48317 11.6087 7.77484 12.4253 9.20817 12.6337C9.7415 12.7253 10.2665 12.7253 10.7582 12.6337C12.2165 12.4253 13.5082 11.6003 14.3332 10.3837C14.8998 9.53365 15.1998 8.53365 15.1998 7.49198C15.2082 4.62532 12.8748 2.29199 9.99984 2.29199Z" fill="#4F617D"/>
<path d="M5.3916 18.8246C5.27493 18.8246 5.1666 18.808 5.04993 18.783C4.50826 18.658 4.0916 18.2413 3.9666 17.6996L3.67493 16.4746C3.65826 16.3996 3.59993 16.3413 3.5166 16.3163L2.1416 15.9913C1.62493 15.8663 1.2166 15.483 1.07493 14.9746C0.933263 14.4663 1.07493 13.9163 1.44993 13.5413L4.69993 10.2913C4.83326 10.158 5.0166 10.0913 5.19993 10.108C5.38326 10.1247 5.54993 10.2246 5.65826 10.383C6.48326 11.5996 7.77493 12.4247 9.2166 12.633C9.74993 12.7247 10.2749 12.7247 10.7666 12.633C12.2249 12.4247 13.5166 11.5996 14.3416 10.383C14.4416 10.2246 14.6166 10.1247 14.7999 10.108C14.9833 10.0913 15.1666 10.158 15.2999 10.2913L18.5499 13.5413C18.9249 13.9163 19.0666 14.4663 18.9249 14.9746C18.7833 15.483 18.3666 15.8747 17.8583 15.9913L16.4833 16.3163C16.4083 16.333 16.3499 16.3913 16.3249 16.4746L16.0333 17.6996C15.9083 18.2413 15.4916 18.658 14.9499 18.783C14.4083 18.9163 13.8499 18.7246 13.4999 18.2996L9.99993 14.2747L6.49993 18.308C6.2166 18.6413 5.8166 18.8246 5.3916 18.8246ZM5.07493 11.6913L2.33326 14.433C2.25826 14.508 2.2666 14.5913 2.28326 14.6413C2.2916 14.683 2.33326 14.7663 2.43326 14.783L3.80826 15.108C4.34993 15.233 4.7666 15.6496 4.8916 16.1913L5.18326 17.4163C5.20826 17.5246 5.2916 17.558 5.3416 17.5746C5.3916 17.583 5.47493 17.5913 5.54993 17.508L8.7416 13.833C7.32493 13.558 6.02493 12.7996 5.07493 11.6913ZM11.2583 13.8246L14.4499 17.4913C14.5249 17.583 14.6166 17.583 14.6666 17.5663C14.7166 17.558 14.7916 17.5163 14.8249 17.408L15.1166 16.183C15.2416 15.6413 15.6583 15.2246 16.1999 15.0996L17.5749 14.7747C17.6749 14.7497 17.7166 14.6746 17.7249 14.633C17.7416 14.5913 17.7499 14.4996 17.6749 14.4246L14.9333 11.683C13.9749 12.7913 12.6833 13.5496 11.2583 13.8246Z" fill="#4F617D"/>
<path d="M11.5753 10.7419C11.3586 10.7419 11.1003 10.6835 10.7919 10.5002L10.0003 10.0252L9.20861 10.4919C8.48361 10.9252 8.00861 10.6752 7.83361 10.5502C7.65861 10.4252 7.28361 10.0502 7.47528 9.22521L7.67528 8.36688L7.00861 7.75019C6.64195 7.38353 6.50861 6.94188 6.63361 6.54188C6.75861 6.14188 7.12528 5.85853 7.64195 5.7752L8.53361 5.6252L8.95861 4.69187C9.20028 4.21687 9.57528 3.9502 10.0003 3.9502C10.4253 3.9502 10.8086 4.22522 11.0419 4.70022L11.5336 5.68354L12.3586 5.78354C12.8669 5.86687 13.2336 6.15019 13.3669 6.55019C13.4919 6.95019 13.3586 7.39187 12.9919 7.75853L12.3003 8.45022L12.5169 9.22521C12.7086 10.0502 12.3336 10.4252 12.1586 10.5502C12.0669 10.6252 11.8669 10.7419 11.5753 10.7419ZM8.00861 6.99188L8.58361 7.56686C8.85028 7.83353 8.98361 8.28354 8.90028 8.65021L8.74195 9.31686L9.40861 8.9252C9.76695 8.71686 10.2503 8.71686 10.6003 8.9252L11.2669 9.31686L11.1169 8.65021C11.0336 8.27521 11.1586 7.83353 11.4253 7.56686L12.0003 6.99188L11.2753 6.86686C10.9253 6.80853 10.5753 6.55021 10.4169 6.23355L10.0003 5.41687L9.58361 6.2502C9.43361 6.55854 9.08361 6.82521 8.73361 6.88354L8.00861 6.99188Z" fill="#4F617D"/>
</svg>
