<svg width="16" height="16" viewBox="0 0 16 16" fill="none" xmlns="http://www.w3.org/2000/svg">
<path d="M10.0002 15.1673H6.00016C2.38016 15.1673 0.833496 13.6207 0.833496 10.0007V6.00065C0.833496 2.38065 2.38016 0.833984 6.00016 0.833984H10.0002C13.6202 0.833984 15.1668 2.38065 15.1668 6.00065V10.0007C15.1668 13.6207 13.6202 15.1673 10.0002 15.1673ZM6.00016 1.83398C2.92683 1.83398 1.8335 2.92732 1.8335 6.00065V10.0007C1.8335 13.074 2.92683 14.1673 6.00016 14.1673H10.0002C13.0735 14.1673 14.1668 13.074 14.1668 10.0007V6.00065C14.1668 2.92732 13.0735 1.83398 10.0002 1.83398H6.00016Z" fill="#4F617D"/>
<path d="M8.00016 8.66732C7.62683 8.66732 7.3335 8.36732 7.3335 8.00065C7.3335 7.63398 7.6335 7.33398 8.00016 7.33398C8.36683 7.33398 8.66683 7.63398 8.66683 8.00065C8.66683 8.36732 8.3735 8.66732 8.00016 8.66732Z" fill="#4F617D"/>
<path d="M10.6667 8.66732C10.2933 8.66732 10 8.36732 10 8.00065C10 7.63398 10.3 7.33398 10.6667 7.33398C11.0333 7.33398 11.3333 7.63398 11.3333 8.00065C11.3333 8.36732 11.04 8.66732 10.6667 8.66732Z" fill="#4F617D"/>
<path d="M5.33317 8.66732C4.95984 8.66732 4.6665 8.36732 4.6665 8.00065C4.6665 7.63398 4.9665 7.33398 5.33317 7.33398C5.69984 7.33398 5.99984 7.63398 5.99984 8.00065C5.99984 8.36732 5.7065 8.66732 5.33317 8.66732Z" fill="#4F617D"/>
</svg>
