<svg width="20" height="20" viewBox="0 0 20 20" fill="none" xmlns="http://www.w3.org/2000/svg">
<path d="M6.66667 1.66699V4.16699" stroke="#292D32" stroke-miterlimit="10" stroke-linecap="round" stroke-linejoin="round"/>
<path d="M13.3333 1.66699V4.16699" stroke="#292D32" stroke-miterlimit="10" stroke-linecap="round" stroke-linejoin="round"/>
<path d="M13.3333 2.91699C16.1083 3.06699 17.5 4.12533 17.5 8.04199V13.192C17.5 16.6253 16.6667 18.342 12.5 18.342H7.5C3.33333 18.342 2.5 16.6253 2.5 13.192V8.04199C2.5 4.12533 3.89167 3.07533 6.66667 2.91699H13.3333Z" stroke="#292D32" stroke-miterlimit="10" stroke-linecap="round" stroke-linejoin="round"/>
<path d="M17.2917 14.667H2.70833" stroke="#292D32" stroke-miterlimit="10" stroke-linecap="round" stroke-linejoin="round"/>
<path d="M10 6.875C8.97501 6.875 8.10834 7.43333 8.10834 8.51667C8.10834 9.03333 8.35001 9.425 8.71667 9.675C8.20834 9.975 7.91667 10.4583 7.91667 11.025C7.91667 12.0583 8.70834 12.7 10 12.7C11.2833 12.7 12.0833 12.0583 12.0833 11.025C12.0833 10.4583 11.7917 9.96667 11.275 9.675C11.65 9.41667 11.8833 9.03333 11.8833 8.51667C11.8833 7.43333 11.025 6.875 10 6.875ZM10 9.24167C9.56667 9.24167 9.25001 8.98333 9.25001 8.575C9.25001 8.15833 9.56667 7.91667 10 7.91667C10.4333 7.91667 10.75 8.15833 10.75 8.575C10.75 8.98333 10.4333 9.24167 10 9.24167ZM10 11.6667C9.45001 11.6667 9.05 11.3917 9.05 10.8917C9.05 10.3917 9.45001 10.125 10 10.125C10.55 10.125 10.95 10.4 10.95 10.8917C10.95 11.3917 10.55 11.6667 10 11.6667Z" fill="#292D32"/>
</svg>
