<svg width="16" height="16" viewBox="0 0 16 16" fill="none" xmlns="http://www.w3.org/2000/svg">
<path d="M12 5.27318C11.98 5.27318 11.9667 5.27318 11.9467 5.27318H11.9134C10.6534 5.23318 9.71338 4.25985 9.71338 3.05985C9.71338 1.83318 10.7134 0.839844 11.9334 0.839844C13.1534 0.839844 14.1534 1.83984 14.1534 3.05985C14.1467 4.26651 13.2067 5.23985 12.0067 5.27985C12.0067 5.27318 12.0067 5.27318 12 5.27318ZM11.9334 1.83318C11.26 1.83318 10.7134 2.37985 10.7134 3.05318C10.7134 3.71318 11.2267 4.24652 11.8867 4.27318C11.8934 4.26652 11.9467 4.26652 12.0067 4.27318C12.6534 4.23985 13.1534 3.70652 13.16 3.05318C13.16 2.37985 12.6134 1.83318 11.9334 1.83318Z" fill="white"/>
<path d="M12.0065 10.1871C11.7465 10.1871 11.4865 10.1671 11.2265 10.1204C10.9532 10.0738 10.7732 9.81376 10.8198 9.54042C10.8665 9.26709 11.1265 9.08709 11.3998 9.13376C12.2198 9.27376 13.0865 9.12043 13.6665 8.73376C13.9798 8.5271 14.1465 8.26709 14.1465 8.00709C14.1465 7.74709 13.9732 7.49375 13.6665 7.28709C13.0865 6.90042 12.2065 6.74709 11.3798 6.89376C11.1065 6.94709 10.8465 6.76042 10.7998 6.48709C10.7532 6.21376 10.9332 5.95376 11.2065 5.90709C12.2932 5.71376 13.4198 5.92042 14.2198 6.45375C14.8065 6.84709 15.1465 7.40709 15.1465 8.00709C15.1465 8.60042 14.8132 9.1671 14.2198 9.5671C13.6132 9.9671 12.8265 10.1871 12.0065 10.1871Z" fill="white"/>
<path d="M3.97983 5.27399C3.97316 5.27399 3.96649 5.27399 3.96649 5.27399C2.76649 5.23399 1.82649 4.26065 1.81982 3.06065C1.81982 1.83398 2.81983 0.833984 4.03983 0.833984C5.25983 0.833984 6.25982 1.83399 6.25982 3.05399C6.25982 4.26065 5.31982 5.23399 4.11982 5.27399L3.97983 4.77399L4.02649 5.27399C4.01316 5.27399 3.99316 5.27399 3.97983 5.27399ZM4.04649 4.27399C4.08649 4.27399 4.11983 4.27398 4.15983 4.28065C4.75316 4.25398 5.27316 3.72065 5.27316 3.06065C5.27316 2.38732 4.72649 1.84065 4.05316 1.84065C3.37983 1.84065 2.83316 2.38732 2.83316 3.06065C2.83316 3.71398 3.33982 4.24065 3.98649 4.28065C3.99316 4.27398 4.01982 4.27399 4.04649 4.27399Z" fill="white"/>
<path d="M3.9735 10.1871C3.1535 10.1871 2.36683 9.9671 1.76016 9.5671C1.1735 9.17376 0.833496 8.60709 0.833496 8.00709C0.833496 7.41376 1.1735 6.84709 1.76016 6.45375C2.56016 5.92042 3.68683 5.71376 4.7735 5.90709C5.04683 5.95376 5.22683 6.21376 5.18016 6.48709C5.1335 6.76042 4.8735 6.94709 4.60016 6.89376C3.7735 6.74709 2.90016 6.90042 2.3135 7.28709C2.00016 7.49375 1.8335 7.74709 1.8335 8.00709C1.8335 8.26709 2.00683 8.5271 2.3135 8.73376C2.8935 9.12043 3.76016 9.27376 4.58016 9.13376C4.8535 9.08709 5.1135 9.27376 5.16016 9.54042C5.20683 9.81376 5.02683 10.0738 4.7535 10.1204C4.4935 10.1671 4.2335 10.1871 3.9735 10.1871Z" fill="white"/>
<path d="M8.00005 10.2537C7.98005 10.2537 7.96671 10.2537 7.94671 10.2537H7.91338C6.65338 10.2137 5.71338 9.24031 5.71338 8.04031C5.71338 6.81365 6.71338 5.82031 7.93338 5.82031C9.15338 5.82031 10.1534 6.82031 10.1534 8.04031C10.1467 9.24698 9.20671 10.2203 8.00671 10.2603C8.00671 10.2536 8.00671 10.2537 8.00005 10.2537ZM7.93338 6.81365C7.26005 6.81365 6.71338 7.36032 6.71338 8.03365C6.71338 8.69365 7.22671 9.22699 7.88671 9.25365C7.89338 9.24699 7.94671 9.24699 8.00671 9.25365C8.65338 9.22032 9.15338 8.68698 9.16005 8.03365C9.16005 7.36698 8.61338 6.81365 7.93338 6.81365Z" fill="white"/>
<path d="M7.9997 15.1725C7.1997 15.1725 6.39969 14.9658 5.77969 14.5458C5.19303 14.1525 4.85303 13.5925 4.85303 12.9925C4.85303 12.3992 5.18636 11.8258 5.77969 11.4325C7.02636 10.6058 8.9797 10.6058 10.2197 11.4325C10.8064 11.8258 11.1464 12.3858 11.1464 12.9858C11.1464 13.5792 10.813 14.1525 10.2197 14.5458C9.5997 14.9592 8.7997 15.1725 7.9997 15.1725ZM6.33303 12.2725C6.01969 12.4792 5.85303 12.7392 5.85303 12.9992C5.85303 13.2592 6.02636 13.5125 6.33303 13.7192C7.23303 14.3258 8.7597 14.3258 9.6597 13.7192C9.97303 13.5125 10.1397 13.2525 10.1397 12.9925C10.1397 12.7325 9.96636 12.4792 9.6597 12.2725C8.76636 11.6658 7.2397 11.6725 6.33303 12.2725Z" fill="white"/>
</svg>
