<svg width="16" height="16" viewBox="0 0 16 16" fill="none" xmlns="http://www.w3.org/2000/svg">
<path d="M11.3332 14V2.66667C11.3332 2.29867 11.0345 2 10.6665 2H5.33317C4.96517 2 4.6665 2.29867 4.6665 2.66667V14" stroke="#4F617D" stroke-linecap="round" stroke-linejoin="round"/>
<path d="M4.66634 6H1.99967C1.63167 6 1.33301 6.29867 1.33301 6.66667V14" stroke="#4F617D" stroke-linecap="round" stroke-linejoin="round"/>
<path d="M14.6663 14V6.66667C14.6663 6.29867 14.3677 6 13.9997 6H11.333" stroke="#4F617D" stroke-linecap="round" stroke-linejoin="round"/>
<path d="M6.33301 11.3333H9.66634" stroke="#4F617D" stroke-linecap="round" stroke-linejoin="round"/>
<path d="M8.99984 11.333V13.9997" stroke="#4F617D" stroke-linecap="round" stroke-linejoin="round"/>
<path d="M6.99984 13.9997V11.333" stroke="#4F617D" stroke-linecap="round" stroke-linejoin="round"/>
<path d="M6.6665 7.00033H9.33317" stroke="#4F617D" stroke-linecap="round" stroke-linejoin="round"/>
<path d="M6.6665 9.00033H9.33317" stroke="#4F617D" stroke-linecap="round" stroke-linejoin="round"/>
<path d="M6.6665 5.00033H9.33317" stroke="#4F617D" stroke-linecap="round" stroke-linejoin="round"/>
<path d="M3.33301 9.00033H4.66634" stroke="#4F617D" stroke-linecap="round" stroke-linejoin="round"/>
<path d="M3.33301 11.3333H4.66634" stroke="#4F617D" stroke-linecap="round" stroke-linejoin="round"/>
<path d="M11.333 9.00033H12.6663" stroke="#4F617D" stroke-linecap="round" stroke-linejoin="round"/>
<path d="M11.333 11.3333H12.6663" stroke="#4F617D" stroke-linecap="round" stroke-linejoin="round"/>
<path d="M15.3332 14.0003H0.666504" stroke="#4F617D" stroke-linecap="round" stroke-linejoin="round"/>
</svg>
