<svg width="16" height="16" viewBox="0 0 16 16" fill="none" xmlns="http://www.w3.org/2000/svg">
<path fill-rule="evenodd" clip-rule="evenodd" d="M5.91984 8.54967L9.15184 6.52967C9.67917 6.19967 9.99984 5.62167 9.99984 4.99967V4.99967C9.99984 4.07901 9.25384 3.33301 8.33317 3.33301V3.33301C7.4125 3.33301 6.6665 4.07901 6.6665 4.99967V4.99967C6.6665 5.55167 6.2185 5.99967 5.6665 5.99967V5.99967C5.1145 5.99967 4.6665 5.55167 4.6665 4.99967V4.99967C4.6665 2.97434 6.30784 1.33301 8.33317 1.33301V1.33301C10.3585 1.33301 11.9998 2.97434 11.9998 4.99967V13.333C11.9998 14.0697 11.4032 14.6663 10.6665 14.6663H5.99984C5.26317 14.6663 4.6665 14.0697 4.6665 13.333V10.811C4.6665 9.89167 5.13984 9.03701 5.91984 8.54967Z" stroke="#4F617D" stroke-linecap="round" stroke-linejoin="round"/>
</svg>
