<svg width="16" height="16" viewBox="0 0 16 16" fill="none" xmlns="http://www.w3.org/2000/svg">
<path fill-rule="evenodd" clip-rule="evenodd" d="M9.6847 6.08008H7.64936C7.19403 6.08008 6.8727 5.63408 7.0167 5.20274V5.20274C7.24003 4.53208 7.86736 4.08008 8.57403 4.08008H8.75936C9.46603 4.08008 10.0934 4.53208 10.3167 5.20274V5.20274C10.4607 5.63408 10.1394 6.08008 9.6847 6.08008V6.08008Z" stroke="#4F617D" stroke-linecap="round" stroke-linejoin="round"/>
<path d="M4.66218 8.8418H2.66684C2.25751 8.8418 1.94484 9.20713 2.00818 9.61113L2.23751 11.0778C2.44018 12.3765 3.55818 13.3331 4.87218 13.3331H11.1282C12.4422 13.3331 13.5602 12.3765 13.7628 11.0785L13.9922 9.6118C14.0555 9.2078 13.7428 8.84246 13.3335 8.84246H8.17551" stroke="#4F617D" stroke-linecap="round" stroke-linejoin="round"/>
<path d="M8.6665 4.08V4C8.6665 2.89533 9.56184 2 10.6665 2V2C11.7712 2 12.6665 2.89533 12.6665 4V8.842" stroke="#4F617D" stroke-linecap="round" stroke-linejoin="round"/>
<path fill-rule="evenodd" clip-rule="evenodd" d="M6.77184 11.5087H6.06984C5.29517 11.5087 4.6665 10.8807 4.6665 10.1053V8.76867C4.6665 8.344 5.0105 8 5.43517 8H7.4065C7.83117 8 8.17517 8.344 8.17517 8.76867V10.1053C8.17517 10.8807 7.54717 11.5087 6.77184 11.5087Z" stroke="#4F617D" stroke-linecap="round" stroke-linejoin="round"/>
<path d="M4.02683 13.2002L3.3335 14.0002" stroke="#4F617D" stroke-linecap="round" stroke-linejoin="round"/>
<path d="M12.6665 14.0002L11.9731 13.2002" stroke="#4F617D" stroke-linecap="round" stroke-linejoin="round"/>
</svg>
