<svg width="24" height="24" viewBox="0 0 24 24" fill="none" xmlns="http://www.w3.org/2000/svg">
<path d="M21.09 6.97953C20.24 6.03953 18.82 5.56953 16.76 5.56953H16.52V5.52953C16.52 3.84953 16.52 1.76953 12.76 1.76953H11.24C7.48001 1.76953 7.48001 3.85953 7.48001 5.52953V5.57953H7.24001C5.17001 5.57953 3.76001 6.04953 2.91001 6.98953C1.92001 8.08953 1.95001 9.56953 2.05001 10.5795L2.06001 10.6495L2.13746 11.4628C2.15173 11.6126 2.23239 11.7479 2.35828 11.8303C2.59809 11.9872 2.99943 12.2459 3.24001 12.3795C3.38001 12.4695 3.53001 12.5495 3.68001 12.6295C5.39001 13.5695 7.27001 14.1995 9.18001 14.5095C9.27001 15.4495 9.68001 16.5495 11.87 16.5495C14.06 16.5495 14.49 15.4595 14.56 14.4895C16.6 14.1595 18.57 13.4495 20.35 12.4095C20.41 12.3795 20.45 12.3495 20.5 12.3195C20.8967 12.0953 21.3083 11.819 21.6835 11.5484C21.7965 11.4668 21.8688 11.3408 21.8841 11.2023L21.9 11.0595L21.95 10.5895C21.96 10.5295 21.96 10.4795 21.97 10.4095C22.05 9.39953 22.03 8.01953 21.09 6.97953ZM13.09 13.8295C13.09 14.8895 13.09 15.0495 11.86 15.0495C10.63 15.0495 10.63 14.8595 10.63 13.8395V12.5795H13.09V13.8295ZM8.91001 5.56953V5.52953C8.91001 3.82953 8.91001 3.19953 11.24 3.19953H12.76C15.09 3.19953 15.09 3.83953 15.09 5.52953V5.57953H8.91001V5.56953Z" fill="white"/>
<path d="M20.8735 13.7349C21.2271 13.5666 21.6343 13.8469 21.5989 14.2369L21.24 18.1907C21.03 20.1907 20.21 22.2307 15.81 22.2307H8.19C3.79 22.2307 2.97 20.1907 2.76 18.2007L2.41928 14.4529C2.38424 14.0674 2.7822 13.7874 3.13484 13.947C4.27425 14.4625 6.37739 15.3771 7.67656 15.7174C7.84087 15.7604 7.97377 15.878 8.04571 16.0319C8.65268 17.33 9.96911 18.0207 11.87 18.0207C13.7521 18.0207 15.0852 17.3034 15.6941 16.0021C15.7662 15.8481 15.8992 15.7305 16.0636 15.6873C17.4432 15.3243 19.6818 14.3019 20.8735 13.7349Z" fill="white"/>
</svg>
