<svg width="20" height="20" viewBox="0 0 20 20" fill="none" xmlns="http://www.w3.org/2000/svg">
<path d="M5.37497 7.08251C5.32497 7.08251 5.27498 7.07416 5.22498 7.06582C5.06665 7.02416 4.92497 6.92418 4.84164 6.78252L3.54164 4.64919C3.22498 4.13252 3.12497 3.51584 3.27497 2.91584C3.41664 2.32417 3.78331 1.81583 4.30831 1.49916C4.82497 1.1825 5.44164 1.08249 6.04164 1.23249C6.64164 1.37416 7.14164 1.74081 7.45831 2.26581L8.7583 4.3992C8.94164 4.69086 8.84164 5.07417 8.54997 5.2575L5.69997 6.99085C5.59997 7.04918 5.49164 7.08251 5.37497 7.08251ZM5.49164 2.41586C5.29997 2.41586 5.11664 2.46585 4.95831 2.56585C4.72497 2.70752 4.55831 2.94082 4.49164 3.20749C4.42498 3.48249 4.46664 3.75749 4.60831 3.99082L5.58331 5.59086L7.36664 4.50748L6.39164 2.9075C6.24997 2.67416 6.01664 2.5075 5.74997 2.44083C5.6583 2.42417 5.57497 2.41586 5.49164 2.41586Z" fill="#4F617D"/>
<path d="M9.51678 18.8419C9.26678 18.8419 9.01678 18.8085 8.77512 18.7335C8.04178 18.5169 7.45012 18.0169 7.10845 17.3086L5.40011 13.8252C4.49178 11.9752 5.13346 9.77521 6.89179 8.70021L9.52511 7.10023C11.2834 6.02523 13.5418 6.46688 14.7668 8.12521L17.0751 11.2419C17.5418 11.8752 17.7168 12.6335 17.5751 13.3752C17.4334 14.1169 16.9835 14.7586 16.3085 15.1669L10.9501 18.4252C10.5001 18.7002 10.0085 18.8419 9.51678 18.8419ZM11.5834 7.76688C11.1001 7.76688 10.6168 7.9002 10.1668 8.16687L7.53345 9.76685C6.32511 10.5002 5.89178 12.0085 6.50845 13.2752L8.21679 16.7585C8.40845 17.1419 8.72512 17.4169 9.11679 17.5335C9.50845 17.6502 9.92512 17.5836 10.2834 17.3669L15.6418 14.1085C16.0085 13.8835 16.2501 13.5419 16.3335 13.1419C16.4085 12.7419 16.3168 12.3336 16.0585 11.9919L13.7501 8.87523C13.2251 8.15023 12.4168 7.76688 11.5834 7.76688Z" fill="#4F617D"/>
<path d="M6.40002 10.3581C6.35002 10.3581 6.30002 10.3498 6.25002 10.3414C6.09169 10.2998 5.95002 10.1998 5.86669 10.0581L4.13336 7.20813C3.95003 6.91647 4.05003 6.53311 4.3417 6.34977L8.60836 3.74978C8.90003 3.57478 9.29169 3.66645 9.46669 3.95811L11.2 6.8081C11.2834 6.94976 11.3167 7.11644 11.275 7.2831C11.2334 7.44144 11.1334 7.58312 10.9917 7.66646L6.72503 10.2665C6.62503 10.3331 6.50835 10.3581 6.40002 10.3581ZM5.52503 7.0998L6.60835 8.88309L9.80836 6.93312L8.72503 5.14977L5.52503 7.0998Z" fill="#4F617D"/>
<path d="M13.3 16.8921C13.0917 16.8921 12.8833 16.7837 12.7667 16.592L11.3917 14.3337C11.2083 14.0421 11.3083 13.6587 11.6 13.4754C11.8917 13.3004 12.2833 13.392 12.4583 13.6837L13.8333 15.942C14.0167 16.2337 13.9167 16.617 13.625 16.8004C13.525 16.8587 13.4083 16.8921 13.3 16.8921Z" fill="#4F617D"/>
<path d="M11.1667 18.1919C10.9584 18.1919 10.75 18.0835 10.6334 17.8918L9.25836 15.6335C9.07503 15.3419 9.17503 14.9585 9.4667 14.7752C9.75836 14.6002 10.15 14.6918 10.325 14.9835L11.7 17.2419C11.8834 17.5335 11.7834 17.9168 11.4917 18.1002C11.3917 18.1585 11.275 18.1919 11.1667 18.1919Z" fill="#4F617D"/>
<path d="M15.4333 15.5923C15.225 15.5923 15.0166 15.4839 14.9 15.2922L13.525 13.0339C13.3416 12.7423 13.4416 12.3589 13.7333 12.1756C14.025 12.0006 14.4166 12.0922 14.5916 12.3839L15.9666 14.6422C16.15 14.9339 16.05 15.3172 15.7583 15.5006C15.6583 15.5589 15.55 15.5923 15.4333 15.5923Z" fill="#4F617D"/>
</svg>
