<svg width="20" height="20" viewBox="0 0 20 20" fill="none" xmlns="http://www.w3.org/2000/svg">
<path d="M5.37485 7.08251C5.32485 7.08251 5.27486 7.07416 5.22486 7.06582C5.06652 7.02416 4.92485 6.92418 4.84152 6.78252L3.54152 4.64919C3.22485 4.13252 3.12485 3.51584 3.27485 2.91584C3.41651 2.32417 3.78319 1.81583 4.30819 1.49916C4.82485 1.1825 5.44152 1.08249 6.04152 1.23249C6.64152 1.37416 7.14152 1.74081 7.45818 2.26581L8.75818 4.3992C8.94152 4.69086 8.84152 5.07417 8.54985 5.2575L5.69985 6.99085C5.59985 7.04918 5.49152 7.08251 5.37485 7.08251ZM5.49152 2.41586C5.29985 2.41586 5.11652 2.46585 4.95818 2.56585C4.72485 2.70752 4.55819 2.94082 4.49152 3.20749C4.42485 3.48249 4.46652 3.75749 4.60819 3.99082L5.58318 5.59086L7.36652 4.50748L6.39152 2.9075C6.24985 2.67416 6.01652 2.5075 5.74985 2.44083C5.65818 2.42417 5.57485 2.41586 5.49152 2.41586Z" fill="#F59331"/>
<path d="M9.51654 18.8419C9.26654 18.8419 9.01654 18.8085 8.77487 18.7335C8.04154 18.5169 7.44987 18.0169 7.10821 17.3086L5.39987 13.8252C4.49154 11.9752 5.13321 9.77521 6.89154 8.70021L9.52487 7.10023C11.2832 6.02523 13.5415 6.46688 14.7665 8.12521L17.0749 11.2419C17.5415 11.8752 17.7165 12.6335 17.5749 13.3752C17.4332 14.1169 16.9832 14.7586 16.3082 15.1669L10.9499 18.4252C10.4999 18.7002 10.0082 18.8419 9.51654 18.8419ZM11.5832 7.76688C11.0999 7.76688 10.6165 7.9002 10.1665 8.16687L7.5332 9.76685C6.32487 10.5002 5.89154 12.0085 6.50821 13.2752L8.21654 16.7585C8.40821 17.1419 8.72488 17.4169 9.11654 17.5335C9.50821 17.6502 9.92487 17.5836 10.2832 17.3669L15.6415 14.1085C16.0082 13.8835 16.2499 13.5419 16.3332 13.1419C16.4082 12.7419 16.3165 12.3336 16.0582 11.9919L13.7499 8.87523C13.2249 8.15023 12.4165 7.76688 11.5832 7.76688Z" fill="#F59331"/>
<path d="M6.3999 10.3581C6.3499 10.3581 6.2999 10.3498 6.2499 10.3414C6.09157 10.2998 5.9499 10.1998 5.86656 10.0581L4.13324 7.20813C3.94991 6.91647 4.04991 6.53311 4.34157 6.34977L8.60824 3.74978C8.8999 3.57478 9.29157 3.66645 9.46657 3.95811L11.1999 6.8081C11.2832 6.94976 11.3166 7.11644 11.2749 7.2831C11.2332 7.44144 11.1332 7.58312 10.9916 7.66646L6.72491 10.2665C6.62491 10.3331 6.50823 10.3581 6.3999 10.3581ZM5.52491 7.0998L6.60823 8.88309L9.80824 6.93312L8.7249 5.14977L5.52491 7.0998Z" fill="#F59331"/>
<path d="M13.2999 16.8921C13.0916 16.8921 12.8833 16.7837 12.7666 16.592L11.3916 14.3337C11.2083 14.0421 11.3083 13.6587 11.5999 13.4754C11.8916 13.3004 12.2833 13.392 12.4583 13.6837L13.8333 15.942C14.0166 16.2337 13.9166 16.617 13.6249 16.8004C13.5249 16.8587 13.4083 16.8921 13.2999 16.8921Z" fill="#F59331"/>
<path d="M11.1665 18.1919C10.9582 18.1919 10.7498 18.0835 10.6332 17.8918L9.25818 15.6335C9.07485 15.3419 9.17485 14.9585 9.46651 14.7752C9.75818 14.6002 10.1498 14.6918 10.3248 14.9835L11.6998 17.2419C11.8832 17.5335 11.7832 17.9168 11.4915 18.1002C11.3915 18.1585 11.2748 18.1919 11.1665 18.1919Z" fill="#F59331"/>
<path d="M15.4333 15.5923C15.225 15.5923 15.0166 15.4839 14.9 15.2922L13.525 13.0339C13.3416 12.7423 13.4416 12.3589 13.7333 12.1756C14.025 12.0006 14.4166 12.0922 14.5916 12.3839L15.9666 14.6422C16.15 14.9339 16.05 15.3172 15.7583 15.5006C15.6583 15.5589 15.55 15.5923 15.4333 15.5923Z" fill="#F59331"/>
</svg>
