<svg width="20" height="20" viewBox="0 0 20 20" fill="none" xmlns="http://www.w3.org/2000/svg">
<path d="M14.1667 17.7077H5.83335C2.79169 17.7077 1.04169 15.9577 1.04169 12.916V7.08268C1.04169 4.04102 2.79169 2.29102 5.83335 2.29102H14.1667C17.2084 2.29102 18.9584 4.04102 18.9584 7.08268V12.916C18.9584 15.9577 17.2084 17.7077 14.1667 17.7077ZM5.83335 3.54102C3.45002 3.54102 2.29169 4.69935 2.29169 7.08268V12.916C2.29169 15.2993 3.45002 16.4577 5.83335 16.4577H14.1667C16.55 16.4577 17.7084 15.2993 17.7084 12.916V7.08268C17.7084 4.69935 16.55 3.54102 14.1667 3.54102H5.83335Z" fill="#4F617D"/>
<path d="M9.99979 10.7259C9.29979 10.7259 8.59146 10.5093 8.0498 10.0676L5.44146 7.98429C5.17479 7.76762 5.1248 7.37595 5.34146 7.10928C5.55813 6.84262 5.9498 6.79262 6.21647 7.00929L8.82479 9.09262C9.45812 9.60095 10.5331 9.60095 11.1665 9.09262L13.7748 7.00929C14.0415 6.79262 14.4415 6.83428 14.6498 7.10928C14.8665 7.37595 14.8248 7.77595 14.5498 7.98429L11.9415 10.0676C11.4081 10.5093 10.6998 10.7259 9.99979 10.7259Z" fill="#4F617D"/>
</svg>
