<svg width="20" height="20" viewBox="0 0 20 20" fill="none" xmlns="http://www.w3.org/2000/svg">
<path d="M14.9999 6.59246C14.9749 6.59246 14.9582 6.59246 14.9332 6.59246H14.8915C13.3165 6.54246 12.1415 5.32578 12.1415 3.82578C12.1415 2.29245 13.3915 1.05078 14.9165 1.05078C16.4415 1.05078 17.6915 2.30078 17.6915 3.82578C17.6832 5.33412 16.5082 6.55078 15.0082 6.60078C15.0082 6.59245 15.0082 6.59246 14.9999 6.59246ZM14.9165 2.29245C14.0749 2.29245 13.3915 2.97579 13.3915 3.81745C13.3915 4.64245 14.0332 5.30912 14.8582 5.34246C14.8665 5.33412 14.9332 5.33412 15.0082 5.34246C15.8165 5.30079 16.4415 4.63412 16.4499 3.81745C16.4499 2.97579 15.7665 2.29245 14.9165 2.29245Z" fill="#F59331"/>
<path d="M15.0084 12.7339C14.6834 12.7339 14.3584 12.7089 14.0334 12.6505C13.6918 12.5922 13.4668 12.2672 13.5251 11.9255C13.5834 11.5839 13.9084 11.3589 14.2501 11.4172C15.2751 11.5922 16.3584 11.4005 17.0834 10.9172C17.4751 10.6589 17.6834 10.3339 17.6834 10.0089C17.6834 9.68386 17.4668 9.36719 17.0834 9.10886C16.3584 8.62553 15.2584 8.43386 14.2251 8.6172C13.8834 8.68386 13.5584 8.45053 13.5001 8.10886C13.4418 7.7672 13.6668 7.4422 14.0084 7.38387C15.3668 7.1422 16.7751 7.40053 17.7751 8.06719C18.5084 8.55886 18.9334 9.25886 18.9334 10.0089C18.9334 10.7505 18.5168 11.4589 17.7751 11.9589C17.0168 12.4589 16.0334 12.7339 15.0084 12.7339Z" fill="#F59331"/>
<path d="M4.97509 6.59102C4.96675 6.59102 4.95842 6.59102 4.95842 6.59102C3.45842 6.54102 2.28342 5.32435 2.27509 3.82435C2.27509 2.29101 3.52509 1.04102 5.05009 1.04102C6.57509 1.04102 7.82509 2.29102 7.82509 3.81602C7.82509 5.32435 6.65009 6.54102 5.15009 6.59102L4.97509 5.96602L5.03342 6.59102C5.01675 6.59102 4.99175 6.59102 4.97509 6.59102ZM5.05842 5.34102C5.10842 5.34102 5.15009 5.34101 5.20009 5.34935C5.94175 5.31601 6.59175 4.64935 6.59175 3.82435C6.59175 2.98268 5.90842 2.29934 5.06675 2.29934C4.22509 2.29934 3.54175 2.98268 3.54175 3.82435C3.54175 4.64101 4.17509 5.29935 4.98342 5.34935C4.99175 5.34101 5.02509 5.34102 5.05842 5.34102Z" fill="#F59331"/>
<path d="M4.96669 12.7339C3.94169 12.7339 2.95835 12.4589 2.20002 11.9589C1.46669 11.4672 1.04169 10.7589 1.04169 10.0089C1.04169 9.26719 1.46669 8.55886 2.20002 8.06719C3.20002 7.40053 4.60835 7.1422 5.96669 7.38387C6.30835 7.4422 6.53335 7.7672 6.47502 8.10886C6.41669 8.45053 6.09169 8.68386 5.75002 8.6172C4.71669 8.43386 3.62502 8.62553 2.89169 9.10886C2.50002 9.36719 2.29169 9.68386 2.29169 10.0089C2.29169 10.3339 2.50835 10.6589 2.89169 10.9172C3.61669 11.4005 4.70002 11.5922 5.72502 11.4172C6.06669 11.3589 6.39169 11.5922 6.45002 11.9255C6.50836 12.2672 6.28335 12.5922 5.94169 12.6505C5.61669 12.7089 5.29169 12.7339 4.96669 12.7339Z" fill="#F59331"/>
<path d="M9.99987 12.8171C9.97487 12.8171 9.95821 12.8171 9.93321 12.8171H9.89154C8.31654 12.7671 7.14154 11.5504 7.14154 10.0504C7.14154 8.51706 8.39154 7.27539 9.91654 7.27539C11.4415 7.27539 12.6915 8.52539 12.6915 10.0504C12.6832 11.5587 11.5082 12.7754 10.0082 12.8254C10.0082 12.8171 10.0082 12.8171 9.99987 12.8171ZM9.91654 8.51706C9.07488 8.51706 8.39154 9.2004 8.39154 10.0421C8.39154 10.8671 9.03321 11.5337 9.85821 11.5671C9.86654 11.5587 9.93321 11.5587 10.0082 11.5671C10.8165 11.5254 11.4415 10.8587 11.4499 10.0421C11.4499 9.20873 10.7665 8.51706 9.91654 8.51706Z" fill="#F59331"/>
<path d="M9.99992 18.9676C8.99992 18.9676 7.99992 18.7093 7.22492 18.1843C6.49159 17.6926 6.06659 16.9926 6.06659 16.2426C6.06659 15.5009 6.48326 14.7842 7.22492 14.2926C8.78326 13.2592 11.2249 13.2592 12.7749 14.2926C13.5083 14.7842 13.9333 15.4842 13.9333 16.2342C13.9333 16.9759 13.5166 17.6926 12.7749 18.1843C11.9999 18.7009 10.9999 18.9676 9.99992 18.9676ZM7.91659 15.3426C7.52492 15.6009 7.31659 15.9259 7.31659 16.2509C7.31659 16.5759 7.53326 16.8926 7.91659 17.1509C9.04159 17.9093 10.9499 17.9093 12.0749 17.1509C12.4666 16.8926 12.6749 16.5676 12.6749 16.2426C12.6749 15.9176 12.4583 15.6009 12.0749 15.3426C10.9583 14.5843 9.04992 14.5926 7.91659 15.3426Z" fill="#F59331"/>
</svg>
