<svg width="20" height="20" viewBox="0 0 20 20" fill="none" xmlns="http://www.w3.org/2000/svg">
<path d="M12.0832 13.4922H7.9165C7.57484 13.4922 7.2915 13.2089 7.2915 12.8672C7.2915 12.5255 7.57484 12.2422 7.9165 12.2422H12.0832C12.4248 12.2422 12.7082 12.5255 12.7082 12.8672C12.7082 13.2089 12.4248 13.4922 12.0832 13.4922Z" fill="#4F617D"/>
<path d="M10 15.6247C9.65833 15.6247 9.375 15.3413 9.375 14.9997V10.833C9.375 10.4913 9.65833 10.208 10 10.208C10.3417 10.208 10.625 10.4913 10.625 10.833V14.9997C10.625 15.3413 10.3417 15.6247 10 15.6247Z" fill="#4F617D"/>
<path d="M4.33373 8.71689C4.1754 8.71689 4.01706 8.65022 3.89206 8.53356C3.71706 8.35856 3.65873 8.08356 3.75873 7.85022L5.30873 4.15022C5.34206 4.07522 5.35873 4.02522 5.38373 3.98356C6.61706 1.14189 8.19206 0.450223 10.9754 1.51689C11.1337 1.57522 11.2587 1.70022 11.3254 1.85856C11.3921 2.01689 11.3921 2.19189 11.3254 2.35022L8.88373 8.01689C8.78373 8.24189 8.55873 8.39189 8.30873 8.39189H5.93373C5.45873 8.39189 5.00873 8.48356 4.5754 8.66689C4.5004 8.70022 4.41706 8.71689 4.33373 8.71689ZM8.84206 2.29189C7.80873 2.29189 7.1754 2.96689 6.51706 4.50022C6.50873 4.52522 6.49206 4.55022 6.48373 4.57522L5.39206 7.16689C5.5754 7.15022 5.7504 7.14189 5.93373 7.14189H7.89206L9.9004 2.47522C9.50873 2.35022 9.15873 2.29189 8.84206 2.29189Z" fill="#4F617D"/>
<path d="M15.242 8.55843C15.1837 8.55843 15.117 8.5501 15.0587 8.53343C14.7504 8.44177 14.4087 8.39177 14.0587 8.39177H8.30869C8.10035 8.39177 7.90035 8.28343 7.78369 8.10843C7.67535 7.93343 7.65035 7.70844 7.73369 7.51677L10.1504 1.90843C10.2754 1.60843 10.642 1.40843 10.9504 1.50843C11.0504 1.54177 11.142 1.58343 11.242 1.6251L13.2087 2.4501C14.3587 2.9251 15.1254 3.4251 15.6254 4.0251C15.7254 4.14177 15.8087 4.26677 15.8837 4.39177C15.9754 4.53343 16.0587 4.70844 16.117 4.88344C16.142 4.94177 16.1837 5.0501 16.2087 5.16677C16.442 5.9501 16.3254 6.9251 15.8254 8.1751C15.7254 8.40843 15.492 8.55843 15.242 8.55843ZM9.25869 7.14177H14.067C14.3337 7.14177 14.592 7.16677 14.8504 7.20843C15.0837 6.48343 15.1337 5.9251 15.0004 5.4751C14.9837 5.4001 14.967 5.36677 14.9587 5.33344C14.9087 5.2001 14.8754 5.1251 14.8337 5.05843C14.7754 4.96677 14.7337 4.89177 14.667 4.81677C14.3087 4.38344 13.6754 3.98344 12.7337 3.6001L11.0837 2.90843L9.25869 7.14177Z" fill="#4F617D"/>
<path d="M13.25 18.9583H6.75C6.51667 18.9583 6.3 18.9416 6.08333 18.9166C3.15833 18.7166 1.49167 17.0499 1.29167 14.0916C1.26667 13.9083 1.25 13.6833 1.25 13.4583V11.8333C1.25 9.95827 2.36667 8.2666 4.09167 7.5166C4.675 7.2666 5.3 7.1416 5.94167 7.1416H14.075C14.55 7.1416 15.0083 7.20827 15.4333 7.3416C17.3917 7.93327 18.7667 9.78327 18.7667 11.8333V13.4583C18.7667 13.6416 18.7583 13.8166 18.75 13.9833C18.5667 17.2416 16.6667 18.9583 13.25 18.9583ZM5.93333 8.3916C5.45833 8.3916 5.00833 8.48327 4.575 8.6666C3.30833 9.2166 2.49167 10.4583 2.49167 11.8333V13.4583C2.49167 13.6333 2.50833 13.8083 2.525 13.9749C2.68333 16.3499 3.85 17.5166 6.19167 17.6749C6.4 17.6999 6.56667 17.7166 6.74167 17.7166H13.2417C15.9917 17.7166 17.3417 16.5083 17.475 13.9249C17.4833 13.7749 17.4917 13.6249 17.4917 13.4583V11.8333C17.4917 10.3249 16.4833 8.97493 15.05 8.53327C14.7417 8.4416 14.4 8.3916 14.05 8.3916H5.93333Z" fill="#4F617D"/>
<path d="M1.8667 12.4582C1.52503 12.4582 1.2417 12.1748 1.2417 11.8332V9.3915C1.2417 6.7665 3.10003 4.49983 5.6667 3.99983C5.8917 3.95817 6.12503 4.0415 6.27503 4.2165C6.4167 4.3915 6.45837 4.6415 6.3667 4.84983L4.90837 8.33317C4.8417 8.48317 4.72503 8.59983 4.58337 8.6665C3.3167 9.2165 2.50003 10.4582 2.50003 11.8332C2.4917 12.1748 2.2167 12.4582 1.8667 12.4582ZM4.6667 5.68317C3.60003 6.28317 2.82503 7.33317 2.58337 8.55817C2.95003 8.18317 3.37503 7.8665 3.85837 7.63317L4.6667 5.68317Z" fill="#4F617D"/>
<path d="M18.1335 12.4581C17.7918 12.4581 17.5085 12.1748 17.5085 11.8331C17.5085 10.3248 16.5001 8.97481 15.0668 8.53315C14.9001 8.48315 14.7585 8.36648 14.6835 8.20815C14.6085 8.04982 14.6001 7.86648 14.6668 7.70815C15.0585 6.73315 15.1585 6.02481 15.0001 5.47481C14.9835 5.39981 14.9668 5.36648 14.9585 5.33315C14.8501 5.09148 14.9085 4.80815 15.1001 4.62482C15.2918 4.44148 15.5835 4.39981 15.8168 4.52481C17.6335 5.47481 18.7585 7.34148 18.7585 9.39148V11.8331C18.7585 12.1748 18.4751 12.4581 18.1335 12.4581ZM16.0418 7.57481C16.5668 7.81648 17.0335 8.15815 17.4251 8.56648C17.2668 7.74981 16.8751 7.00815 16.3001 6.42481C16.2585 6.77481 16.1751 7.15815 16.0418 7.57481Z" fill="#4F617D"/>
</svg>
